<?xml version="1.0" standalone="no"?>
<!DOCTYPE svg PUBLIC "-//W3C//DTD SVG 20010904//EN"
 "http://www.w3.org/TR/2001/REC-SVG-20010904/DTD/svg10.dtd">
<svg version="1.0" xmlns="http://www.w3.org/2000/svg"
 width="700.000000pt" height="700.000000pt" viewBox="0 0 700.000000 700.000000"
 preserveAspectRatio="xMidYMid meet">
<metadata>
Created by potrace 1.11, written by Peter Selinger 2001-2013
</metadata>
<g transform="translate(0.000000,700.000000) scale(0.100000,-0.100000)"
fill="#000000" stroke="none">
<path d="M3278 6996 c-1 -2 -41 -6 -88 -10 -87 -7 -105 -9 -225 -27 -116 -18
-123 -19 -192 -35 -154 -34 -203 -47 -313 -81 -303 -92 -688 -279 -940 -455
-639 -447 -1100 -1061 -1344 -1790 -31 -94 -79 -267 -91 -329 -3 -13 -11 -58
-20 -99 -29 -147 -36 -200 -52 -370 -15 -164 -8 -592 12 -711 2 -13 6 -46 9
-74 38 -329 167 -745 339 -1085 61 -122 169 -312 187 -330 3 -3 31 -43 62 -90
222 -332 575 -681 928 -914 177 -117 208 -135 360 -213 247 -126 585 -249 823
-299 92 -19 211 -41 272 -49 22 -2 56 -7 75 -10 186 -26 697 -27 837 -1 17 3
104 16 148 21 179 23 501 113 735 207 179 71 444 203 524 261 6 4 63 41 126
83 244 162 497 383 672 588 34 39 64 73 68 76 17 13 181 236 245 335 80 123
176 294 236 422 21 47 39 87 39 89 0 2 11 27 24 56 57 127 151 421 182 573 17
81 54 301 59 350 4 33 9 71 11 85 9 46 11 524 4 605 -12 128 -21 202 -25 227
-3 13 -8 43 -11 68 -9 71 -71 338 -95 415 -12 39 -24 77 -25 86 -6 30 -97 264
-141 364 -285 638 -786 1203 -1385 1562 -119 71 -304 168 -398 208 -36 15 -83
35 -105 45 -119 52 -416 142 -580 175 -44 9 -89 19 -100 21 -11 2 -38 6 -60 9
-22 3 -51 7 -65 10 -13 2 -52 7 -86 11 -33 3 -74 8 -90 10 -33 5 -540 14 -546
10z m532 -450 c19 -3 58 -8 85 -11 52 -7 61 -8 135 -19 51 -8 297 -64 320 -73
8 -3 20 -7 26 -8 59 -13 445 -163 461 -179 2 -1 -32 -38 -75 -82 -43 -43 -89
-94 -102 -112 -14 -19 -34 -46 -46 -60 -76 -99 -172 -312 -205 -459 -27 -125
-38 -318 -23 -443 34 -296 168 -568 383 -780 253 -251 562 -378 936 -384 l50
-1 13 -50 c23 -92 55 -261 68 -360 3 -27 8 -58 10 -68 3 -19 13 -109 19 -182
9 -102 18 -312 18 -425 0 -131 -11 -411 -17 -445 -2 -11 -7 -60 -11 -109 -4
-50 -8 -97 -10 -106 -2 -10 -6 -39 -9 -66 -11 -86 -14 -108 -20 -139 -3 -16
-10 -61 -16 -100 -15 -98 -46 -251 -76 -375 -14 -58 -28 -116 -30 -130 -6 -28
-97 -117 -242 -238 -212 -175 -446 -322 -686 -428 -56 -25 -114 -51 -131 -59
-103 -46 -386 -127 -560 -161 -22 -4 -42 -8 -45 -9 -3 -1 -27 -5 -55 -9 -27
-4 -61 -10 -75 -12 -80 -12 -219 -19 -395 -19 -215 0 -318 7 -460 29 -108 18
-131 22 -220 42 -5 1 -21 4 -35 7 -127 25 -490 150 -490 168 0 8 18 30 75 93
11 12 47 53 80 91 33 37 65 73 71 79 5 6 34 38 63 71 30 33 68 76 85 95 18 19
174 195 347 390 173 195 326 367 340 382 13 14 49 54 79 89 30 34 60 67 65 73
143 153 400 456 415 488 18 41 19 65 17 423 l-2 380 -28 47 c-44 76 -95 100
-236 110 -246 18 -454 80 -711 211 -263 135 -573 353 -790 557 -116 109 -84
104 -615 105 -253 0 -481 -3 -507 -8 -57 -11 -120 -62 -150 -121 -21 -41 -21
-49 -21 -721 0 -374 3 -701 7 -727 14 -93 38 -110 472 -327 l389 -196 5 -275
c3 -151 3 -440 0 -642 l-5 -368 -125 97 c-150 117 -396 359 -510 503 -265 333
-464 729 -569 1130 -44 168 -69 314 -91 520 -8 76 -5 530 4 585 9 56 38 240
40 255 2 8 6 29 9 45 4 17 9 39 11 50 24 124 99 354 171 524 l47 111 36 0
c709 2 827 5 862 24 46 25 952 931 976 976 17 31 19 63 21 315 1 154 2 287 2
296 1 10 17 20 49 27 98 25 258 61 292 66 70 12 186 27 255 32 39 4 72 8 74
10 5 5 472 -4 511 -10z"/>
</g>
</svg>
